<svg xmlns="http://www.w3.org/2000/svg" viewBox="-0.5 -0.5 16 16" fill="#000000"
	id="Coins-Fill--Streamline-Phosphor-Fill.svg" height="16" width="16">
	<desc>Coins Fill Streamline Icon: https://streamlinehq.com</desc>
	<path
		d="M10.78125 5.2482421875V4.921875c0 -1.46953125 -2.2166015624999997 -2.578125 -5.15625 -2.578125S0.46875 3.4523437500000003 0.46875 4.921875v2.34375c0 1.2240234375 1.5380859375 2.1966796875 3.75 2.487890625V10.078125c0 1.46953125 2.2166015624999997 2.578125 5.15625 2.578125s5.15625 -1.10859375 5.15625 -2.578125v-2.34375c0 -1.212890625 -1.489453125 -2.18671875 -3.75 -2.4861328125Zm-7.5 3.357421875C2.1333984375 8.28515625 1.40625 7.7572265625 1.40625 7.265625v-0.8244140625c0.478125 0.338671875 1.1185546875 0.61171875 1.875 0.7951171875Zm4.6875 -1.3693359375c0.7564453125 -0.18339843749999998 1.396875 -0.4564453125 1.875 -0.7951171875V7.265625c0 0.49160156250000003 -0.7271484375 1.01953125 -1.875 1.3400390625Zm-0.9375 4.181835937500001c-1.1478515625 -0.3205078125 -1.875 -0.8484375000000001 -1.875 -1.3400390625v-0.2443359375c0.15410156249999998 0.005859375 0.3099609375 0.009960937500000001 0.46875 0.009960937500000001 0.22734374999999998 0 0.4494140625 -0.007617187500000001 0.6673828125000001 -0.0205078125a7.14375 7.14375 0 0 0 0.7388671874999999 0.2203125Zm0 -2.614453125A9.55078125 9.55078125 0 0 1 5.625 8.90625a9.55078125 9.55078125 0 0 1 -1.40625 -0.1025390625v-1.3939453124999999A10.766015625000001 10.766015625000001 0 0 0 5.625 7.5a10.766015625000001 10.766015625000001 0 0 0 1.40625 -0.090234375Zm3.75 2.8125a9.6943359375 9.6943359375 0 0 1 -2.8125 0V10.21875a10.51640625 10.51640625 0 0 0 1.40625 0.09375 10.766015625000001 10.766015625000001 0 0 0 1.40625 -0.090234375ZM13.59375 10.078125c0 0.49160156250000003 -0.7271484375 1.01953125 -1.875 1.3400390625V10.048828125c0.7564453125 -0.18339843749999998 1.396875 -0.4564453125 1.875 -0.7951171875Z"
		stroke-width="1"></path>
</svg>