<svg xmlns="http://www.w3.org/2000/svg" viewBox="-0.5 -0.5 16 16" id="Classify-Add-2-Line--Streamline-Mingcute.svg"
	height="16" width="16">
	<desc>Classify Add 2 Line Streamline Icon: https://streamlinehq.com</desc>
	<g fill="none" fill-rule="evenodd">
		<path
			d="M15 0v15H0V0h15ZM7.87125 14.536249999999999l-0.0075 0.00125 -0.044375 0.021875000000000002 -0.0125 0.0025 -0.00875 -0.0025 -0.044375 -0.0225c-0.00625 -0.001875 -0.011875 0 -0.015 0.00375l-0.0025 0.00625 -0.010625 0.2675 0.003125 0.0125 0.00625 0.008125 0.065 0.04625 0.009375 0.0025 0.0075 -0.0025 0.065 -0.04625 0.0075 -0.01 0.0025 -0.010625 -0.010625 -0.266875c-0.00125 -0.00625 -0.005625 -0.010625 -0.01 -0.01125Zm0.165 -0.07062500000000001 -0.00875 0.00125 -0.11499999999999999 0.058124999999999996 -0.00625 0.00625 -0.001875 0.006874999999999999 0.01125 0.26875 0.003125 0.0075 0.005 0.005 0.12562500000000001 0.057499999999999996c0.0075 0.0025 0.014374999999999999 0 0.018125000000000002 -0.005l0.0025 -0.00875 -0.02125 -0.38375c-0.001875 -0.0075 -0.00625 -0.0125 -0.0125 -0.013749999999999998Zm-0.44687499999999997 0.00125a0.014374999999999999 0.014374999999999999 0 0 0 -0.016875 0.00375l-0.00375 0.00875 -0.02125 0.38375c0 0.0075 0.004375 0.0125 0.010625 0.015l0.009375 -0.00125 0.12562500000000001 -0.058124999999999996 0.00625 -0.005 0.001875 -0.006874999999999999 0.01125 -0.26875 -0.001875 -0.0075 -0.00625 -0.00625 -0.11499999999999999 -0.057499999999999996Z"
			stroke-width="1"></path>
		<path fill="#000000"
			d="M6.875 3.125a1.25 1.25 0 0 0 -1.25 -1.25H3.125a1.25 1.25 0 0 0 -1.25 1.25v2.5a1.25 1.25 0 0 0 1.25 1.25h2.5a1.25 1.25 0 0 0 1.25 -1.25V3.125ZM3.125 3.125h2.5v2.5H3.125V3.125Zm10 0a1.25 1.25 0 0 0 -1.25 -1.25h-2.5a1.25 1.25 0 0 0 -1.25 1.25v2.5a1.25 1.25 0 0 0 1.25 1.25h2.5a1.25 1.25 0 0 0 1.25 -1.25V3.125Zm-3.75 0h2.5v2.5h-2.5V3.125Zm-3.75 5a1.25 1.25 0 0 1 1.25 1.25v2.5a1.25 1.25 0 0 1 -1.25 1.25H3.125a1.25 1.25 0 0 1 -1.25 -1.25v-2.5a1.25 1.25 0 0 1 1.25 -1.25h2.5Zm0 1.25H3.125v2.5h2.5v-2.5Zm2.5 1.25a0.625 0.625 0 0 1 0.625 -0.625h1.25v-1.25a0.625 0.625 0 1 1 1.25 0v1.25h1.25a0.625 0.625 0 1 1 0 1.25h-1.25v1.25a0.625 0.625 0 1 1 -1.25 0v-1.25h-1.25a0.625 0.625 0 0 1 -0.625 -0.625Z"
			stroke-width="1"></path>
	</g>
</svg>