<svg xmlns="http://www.w3.org/2000/svg" viewBox="-0.5 -0.5 16 16" id="Delete-2-Line--Streamline-Mingcute.svg"
	height="16" width="16">
	<desc>Delete 2 Line Streamline Icon: https://streamlinehq.com</desc>
	<g fill="none" fill-rule="nonzero">
		<path
			d="M15 0v15H0V0h15ZM7.870625 14.536249999999999l-0.006874999999999999 0.00125 -0.044375 0.021875000000000002 -0.0125 0.0025 -0.00875 -0.0025 -0.044375 -0.021875000000000002c-0.00625 -0.0025 -0.011875 -0.000625 -0.015 0.003125l-0.0025 0.00625 -0.010625 0.2675 0.003125 0.0125 0.00625 0.008125 0.065 0.04625 0.009375 0.0025 0.0075 -0.0025 0.065 -0.04625 0.0075 -0.01 0.0025 -0.010625 -0.010625 -0.266875c-0.00125 -0.00625 -0.005625 -0.010625 -0.010625 -0.01125Zm0.16562500000000002 -0.07062500000000001 -0.008125 0.00125 -0.115625 0.058124999999999996 -0.00625 0.00625 -0.001875 0.006874999999999999 0.01125 0.26875 0.003125 0.0075 0.005 0.004375 0.12562500000000001 0.058124999999999996c0.0075 0.0025 0.014374999999999999 0 0.018125000000000002 -0.005l0.0025 -0.00875 -0.02125 -0.38375c-0.001875 -0.0075 -0.00625 -0.0125 -0.0125 -0.013749999999999998Zm-0.44687499999999997 0.00125a0.014374999999999999 0.014374999999999999 0 0 0 -0.016875 0.00375l-0.00375 0.00875 -0.02125 0.38375c0 0.0075 0.004375 0.0125 0.010625 0.015l0.009375 -0.00125 0.12562500000000001 -0.058124999999999996 0.00625 -0.005 0.0025 -0.006874999999999999 0.010625 -0.26875 -0.001875 -0.0075 -0.00625 -0.00625 -0.11499999999999999 -0.057499999999999996Z"
			stroke-width="1"></path>
		<path fill="#000000"
			d="M8.924999999999999 1.25a1.25 1.25 0 0 1 1.185625 0.8550000000000001L10.45 3.125H12.5a0.625 0.625 0 1 1 0 1.25l-0.001875 0.044375 -0.541875 7.589375A1.875 1.875 0 0 1 10.086250000000001 13.75H4.91375a1.875 1.875 0 0 1 -1.87 -1.74125L2.501875 4.41875A0.63125 0.63125 0 0 1 2.5 4.375a0.625 0.625 0 0 1 0 -1.25h2.05l0.33937500000000004 -1.02A1.25 1.25 0 0 1 6.0756250000000005 1.25h2.84875Zm2.323125 3.125H3.751875l0.53875 7.544375a0.625 0.625 0 0 0 0.623125 0.5806250000000001h5.172499999999999a0.625 0.625 0 0 0 0.623125 -0.5806250000000001L11.248125 4.375ZM6.25 6.25a0.625 0.625 0 0 1 0.620625 0.551875L6.875 6.875v3.125a0.625 0.625 0 0 1 -1.245625 0.07312500000000001L5.625 10v-3.125a0.625 0.625 0 0 1 0.625 -0.625Zm2.5 0a0.625 0.625 0 0 1 0.625 0.625v3.125a0.625 0.625 0 1 1 -1.25 0v-3.125a0.625 0.625 0 0 1 0.625 -0.625Zm0.17500000000000002 -3.75H6.075l-0.208125 0.625h3.26625l-0.20875000000000002 -0.625Z"
			stroke-width="1"></path>
	</g>
</svg>