<svg xmlns="http://www.w3.org/2000/svg" viewBox="0 0 16 16" id="History-Anticlockwise-Line--Streamline-Mingcute"
	height="16" width="16">
	<desc>
		History Anticlockwise Line Streamline Icon: https://streamlinehq.com
	</desc>
	<g fill="none" fill-rule="nonzero">
		<path
			d="M16 0v16H0V0h16ZM8.395999999999999 15.505333333333333l-0.008 0.0013333333333333333 -0.047333333333333324 0.023333333333333334 -0.013333333333333332 0.0026666666666666666 -0.009333333333333332 -0.0026666666666666666 -0.047333333333333324 -0.023999999999999997c-0.006666666666666666 -0.002 -0.012666666666666666 0 -0.016 0.004l-0.0026666666666666666 0.006666666666666666 -0.011333333333333334 0.2853333333333333 0.003333333333333333 0.013333333333333332 0.006666666666666666 0.008666666666666666 0.06933333333333333 0.049333333333333326 0.009999999999999998 0.0026666666666666666 0.008 -0.0026666666666666666 0.06933333333333333 -0.049333333333333326 0.008 -0.010666666666666666 0.0026666666666666666 -0.011333333333333334 -0.011333333333333334 -0.2846666666666666c-0.0013333333333333333 -0.006666666666666666 -0.005999999999999999 -0.011333333333333334 -0.010666666666666666 -0.011999999999999999Zm0.176 -0.07533333333333334 -0.009333333333333332 0.0013333333333333333 -0.12266666666666666 0.062 -0.006666666666666666 0.006666666666666666 -0.002 0.007333333333333332 0.011999999999999999 0.2866666666666666 0.003333333333333333 0.008 0.005333333333333333 0.005333333333333333 0.134 0.06133333333333333c0.008 0.0026666666666666666 0.015333333333333332 0 0.019333333333333334 -0.005333333333333333l0.0026666666666666666 -0.009333333333333332 -0.02266666666666667 -0.4093333333333333c-0.002 -0.008 -0.006666666666666666 -0.013333333333333332 -0.013333333333333332 -0.014666666666666665Zm-0.4766666666666666 0.0013333333333333333a0.015333333333333332 0.015333333333333332 0 0 0 -0.018 0.004l-0.004 0.009333333333333332 -0.02266666666666667 0.4093333333333333c0 0.008 0.004666666666666666 0.013333333333333332 0.011333333333333334 0.016l0.009999999999999998 -0.0013333333333333333 0.134 -0.062 0.006666666666666666 -0.005333333333333333 0.002 -0.007333333333333332 0.011999999999999999 -0.2866666666666666 -0.002 -0.008 -0.006666666666666666 -0.006666666666666666 -0.12266666666666666 -0.06133333333333333Z"
			stroke-width="0.6667"></path>
		<path fill="#000000"
			d="M13.773333333333333 4.666666666666666c1.8413333333333333 3.1886666666666668 0.7486666666666666 7.266666666666667 -2.44 9.106666666666666 -2.748666666666667 1.5866666666666664 -6.155333333333333 0.994 -8.223333333333333 -1.24a0.6666666666666666 0.6666666666666666 0 0 1 0.9786666666666666 -0.9053333333333333 5.333333333333333 5.333333333333333 0 1 0 -1.3733333333333333 -4.349333333333333l0.8539999999999999 -0.22333333333333333c0.698 -0.182 1.212 0.6466666666666666 0.7386666666666667 1.1913333333333331L2.8066666666666666 9.971333333333334c-0.3786666666666666 0.43466666666666665 -1.1099999999999999 0.2866666666666666 -1.2613333333333332 -0.296A6.668666666666667 6.668666666666667 0 0 1 4.666666666666666 2.2266666666666666C7.855333333333332 0.38599999999999995 11.932666666666666 1.478 13.773333333333333 4.666666666666666ZM8 4a0.6666666666666666 0.6666666666666666 0 0 1 0.6666666666666666 0.6666666666666666v3.0573333333333332l1.8046666666666664 1.8046666666666664a0.6666666666666666 0.6666666666666666 0 1 1 -0.9426666666666665 0.9426666666666665l-2 -2A0.6666666666666666 0.6666666666666666 0 0 1 7.333333333333333 8V4.666666666666666a0.6666666666666666 0.6666666666666666 0 0 1 0.6666666666666666 -0.6666666666666666Z"
			stroke-width="0.6667"></path>
	</g>
</svg>