<svg xmlns="http://www.w3.org/2000/svg" viewBox="-0.5 -0.5 16 16" id="Checks-Line--Streamline-Mingcute.svg" height="16"
	width="16">
	<desc>Checks Line Streamline Icon: https://streamlinehq.com</desc>
	<g fill="none" fill-rule="nonzero">
		<path
			d="M15 0v15H0V0h15ZM7.87125 14.536249999999999l-0.0075 0.00125 -0.044375 0.021875000000000002 -0.0125 0.0025 -0.00875 -0.0025 -0.044375 -0.0225c-0.00625 -0.001875 -0.011875 0 -0.015 0.00375l-0.0025 0.00625 -0.010625 0.2675 0.003125 0.0125 0.00625 0.008125 0.065 0.04625 0.009375 0.0025 0.0075 -0.0025 0.065 -0.04625 0.0075 -0.01 0.0025 -0.010625 -0.010625 -0.266875c-0.00125 -0.00625 -0.005625 -0.010625 -0.01 -0.01125Zm0.165 -0.07062500000000001 -0.00875 0.00125 -0.11499999999999999 0.058124999999999996 -0.00625 0.00625 -0.001875 0.006874999999999999 0.01125 0.26875 0.003125 0.0075 0.005 0.005 0.12562500000000001 0.057499999999999996c0.0075 0.0025 0.014374999999999999 0 0.018125000000000002 -0.005l0.0025 -0.00875 -0.02125 -0.38375c-0.001875 -0.0075 -0.00625 -0.0125 -0.0125 -0.013749999999999998Zm-0.44687499999999997 0.00125a0.014374999999999999 0.014374999999999999 0 0 0 -0.016875 0.00375l-0.00375 0.00875 -0.02125 0.38375c0 0.0075 0.004375 0.0125 0.010625 0.015l0.009375 -0.00125 0.12562500000000001 -0.058124999999999996 0.00625 -0.005 0.001875 -0.006874999999999999 0.01125 -0.26875 -0.001875 -0.0075 -0.00625 -0.00625 -0.11499999999999999 -0.057499999999999996Z"
			stroke-width="1"></path>
		<path fill="#000000"
			d="M1.38875 6.9506250000000005a0.625 0.625 0 0 1 0.8250000000000001 -0.051875000000000004l0.05875 0.051875000000000004 2.65125 2.6518750000000004a0.625 0.625 0 0 1 -0.8250000000000001 0.935625l-0.05875 -0.051875000000000004 -2.65125 -2.65125a0.625 0.625 0 0 1 0 -0.884375Zm12.8475 -3.5349999999999997a0.625 0.625 0 0 1 0.051875000000000004 0.8250000000000001l-0.051875000000000004 0.05875 -6.143125 6.1425a0.6875 0.6875 0 0 1 -0.9125 0.05374999999999999l-0.06 -0.053125000000000006 -2.606875 -2.6075a0.625 0.625 0 0 1 0.8250000000000001 -0.93625l0.05875 0.051875000000000004 2.209375 2.21 5.7456249999999995 -5.745a0.625 0.625 0 0 1 0.8837499999999999 0Zm-3.125 0a0.625 0.625 0 0 1 0.051875000000000004 0.8250000000000001l-0.051875000000000004 0.05875 -3.09375 3.09375a0.625 0.625 0 0 1 -0.935625 -0.8250000000000001l0.051875000000000004 -0.059375 3.09375 -3.09375a0.625 0.625 0 0 1 0.8837499999999999 0Z"
			stroke-width="1"></path>
	</g>
</svg>