<svg xmlns="http://www.w3.org/2000/svg" viewBox="-0.5 -0.5 16 16" id="Sandglass-2-Line--Streamline-Mingcute.svg"
	height="16" width="16">
	<desc>Sandglass 2 Line Streamline Icon: https://streamlinehq.com</desc>
	<g fill="none" fill-rule="evenodd">
		<path
			d="m15 0 0 15 -15 0L0 0l15 0ZM7.8709375 14.536125l-0.0072499999999999995 0.0010624999999999999 -0.044375 0.0221875 -0.011875 0.0023125000000000003 -0.0095 -0.0023125000000000003 -0.044375 -0.0221875c-0.0061875 -0.0019375 -0.0116875 -0.0003125 -0.01475 0.0033750000000000004l-0.0025625 0.0068125 -0.0106875 0.2670625 0.003125 0.012750000000000001 0.006874999999999999 0.007625000000000001 0.06475 0.04625 0.009250000000000001 0.0024375 0.007375 -0.0024375 0.06475 -0.04625 0.007875 -0.01 0.0021249999999999997 -0.010375 -0.0106875 -0.2670625c-0.00125 -0.0063124999999999995 -0.005375 -0.0103125 -0.0100625 -0.01125Zm0.1655625 -0.0703125 -0.008687499999999999 0.00125 -0.1154375 0.057749999999999996 -0.0061875 0.0063750000000000005 -0.0016875000000000002 0.007 0.0111875 0.2684375 0.0029999999999999996 0.008 0.0053125 0.0044375000000000005 0.1255625 0.0579375c0.0075625 0.0023125000000000003 0.0143125 -0.000125 0.017812500000000002 -0.005l0.0025 -0.00875 -0.021312499999999998 -0.3841875c-0.0014999999999999998 -0.0074375000000000005 -0.0064375000000000005 -0.0121875 -0.0120625 -0.01325Zm-0.447125 0.00125c-0.006125 -0.0030625 -0.013 -0.00125 -0.017125 0.0033125l-0.0035625 0.008687499999999999 -0.021312499999999998 0.3841875c-0.0004375 0.0071874999999999994 0.004375 0.0129375 0.010499999999999999 0.014625l0.009812499999999998 -0.000875 0.1255625 -0.0579375 0.005875 -0.005062499999999999 0.0024375 -0.007375 0.0111875 -0.2684375 -0.002 -0.007875 -0.005875 -0.0055000000000000005 -0.11549999999999999 -0.057749999999999996Z"
			stroke-width="1"></path>
		<path fill="#000000"
			d="M3.125 2.5c0 -0.69035625 0.55964375 -1.25 1.25 -1.25l6.25 0c0.690375 0 1.25 0.55964375 1.25 1.25l0 0.625c0 0.90076875 -0.380625 1.8652812499999998 -0.8755000000000001 2.697425 -0.366125 0.615575 -0.8183125 1.19845 -1.291 1.677575 0.4726875 0.47912499999999997 0.924875 1.062 1.291 1.6775625C11.494374999999998 10.00975 11.875 10.974250000000001 11.875 11.875l0 0.625c0 0.690375 -0.559625 1.25 -1.25 1.25L4.375 13.75c-0.69035625 0 -1.25 -0.559625 -1.25 -1.25l0 -0.625c0 -0.90075 0.38065000000000004 -1.86525 0.8755250000000001 -2.6974375 0.36606874999999994 -0.6155625 0.8182875000000001 -1.1984375 1.2909499999999998 -1.6775625 -0.47266250000000004 -0.47912499999999997 -0.9248812500000001 -1.062 -1.2909499999999998 -1.677575C3.50565 4.99028125 3.125 4.02576875 3.125 3.125l0 -0.625Zm7.5 0L4.375 2.5l0 0.625c0 0.58058125 0.2588375 1.3168437499999999 0.6998937500000001 2.05850625 0.4351875 0.7317812499999999 1.005625 1.39768125 1.5364187500000002 1.8334312499999998 0.144625 0.1186875 0.2284375 0.29593749999999996 0.2284375 0.4830625 0 0.18712499999999999 -0.0838125 0.364375 -0.2284375 0.4830625 -0.53079375 0.43575 -1.10123125 1.1016249999999999 -1.5364187500000002 1.8334375C4.6338375 10.558125 4.375 11.2944375 4.375 11.875l0 0.625 6.25 0 0 -0.625c0 -0.5805625 -0.2588125 -1.316875 -0.6998749999999999 -2.0585 -0.4351875 -0.7318125 -1.005625 -1.3976875 -1.5364375 -1.8334375 -0.144625 -0.1186875 -0.2284375 -0.29593749999999996 -0.2284375 -0.4830625 0 -0.18712499999999999 0.0838125 -0.364375 0.2284375 -0.4830625 0.5308125 -0.43575 1.10125 -1.10165 1.5364375 -1.8334312499999998C10.366187499999999 4.44184375 10.625 3.7055812500000003 10.625 3.125l0 -0.625Z"
			stroke-width="1"></path>
	</g>
</svg>