<svg xmlns="http://www.w3.org/2000/svg" viewBox="-0.5 -0.5 16 16" id="Settings-3-Line--Streamline-Mingcute.svg"
	height="16" width="16">
	<desc>Settings 3 Line Streamline Icon: https://streamlinehq.com</desc>
	<g fill="none" fill-rule="evenodd">
		<path
			d="M15 0v15H0V0h15ZM7.870625 14.536249999999999l-0.006874999999999999 0.00125 -0.044375 0.021875000000000002 -0.0125 0.0025 -0.00875 -0.0025 -0.044375 -0.021875000000000002c-0.00625 -0.0025 -0.011875 -0.000625 -0.015 0.003125l-0.0025 0.00625 -0.010625 0.2675 0.003125 0.0125 0.00625 0.008125 0.065 0.04625 0.009375 0.0025 0.0075 -0.0025 0.065 -0.04625 0.0075 -0.01 0.0025 -0.010625 -0.010625 -0.266875c-0.00125 -0.00625 -0.005625 -0.010625 -0.010625 -0.01125Zm0.16562500000000002 -0.07062500000000001 -0.008125 0.00125 -0.115625 0.058124999999999996 -0.00625 0.00625 -0.001875 0.006874999999999999 0.01125 0.26875 0.003125 0.0075 0.005 0.004375 0.12562500000000001 0.058124999999999996c0.0075 0.0025 0.014374999999999999 0 0.018125000000000002 -0.005l0.0025 -0.00875 -0.02125 -0.38375c-0.001875 -0.0075 -0.00625 -0.0125 -0.0125 -0.013749999999999998Zm-0.44687499999999997 0.00125a0.014374999999999999 0.014374999999999999 0 0 0 -0.016875 0.00375l-0.00375 0.00875 -0.02125 0.38375c0 0.0075 0.004375 0.0125 0.010625 0.015l0.009375 -0.00125 0.12562500000000001 -0.058124999999999996 0.00625 -0.005 0.0025 -0.006874999999999999 0.010625 -0.26875 -0.001875 -0.0075 -0.00625 -0.00625 -0.11499999999999999 -0.057499999999999996Z"
			stroke-width="1"></path>
		<path fill="#000000"
			d="M8.771875 1.7556250000000002c0.23125 -0.16625 0.55625 -0.24375000000000002 0.875625 -0.12687500000000002a6.24375 6.24375 0 0 1 1.86375 1.078125c0.260625 0.21875 0.35624999999999996 0.538125 0.3275 0.8206249999999999 -0.046875 0.470625 0.035625000000000004 0.925 0.2625 1.31625 0.2 0.348125 0.50125 0.623125 0.8687499999999999 0.816875l0.140625 0.06875c0.25875 0.116875 0.48875 0.36 0.546875 0.6956249999999999a6.2875000000000005 6.2875000000000005 0 0 1 0 2.15c-0.051875000000000004 0.3025 -0.24375000000000002 0.5293749999999999 -0.470625 0.656875l-0.07625 0.039375c-0.43124999999999997 0.19375 -0.78375 0.49375 -1.01 0.885 -0.22625 0.391875 -0.30874999999999997 0.845625 -0.26187499999999997 1.31625 0.028124999999999997 0.28250000000000003 -0.066875 0.6025 -0.3275 0.8206249999999999a6.24375 6.24375 0 0 1 -1.86375 1.078125 0.94375 0.94375 0 0 1 -0.875 -0.12687500000000002C8.3875 12.96875 7.951875 12.8125 7.5 12.8125s-0.8875 0.155625 -1.271875 0.43187499999999995a0.94375 0.94375 0 0 1 -0.875625 0.12687500000000002 6.243125000000001 6.243125000000001 0 0 1 -1.86375 -1.078125 0.944375 0.944375 0 0 1 -0.3275 -0.8206249999999999c0.046875 -0.470625 -0.036250000000000004 -0.925 -0.2625 -1.31625a2.13375 2.13375 0 0 0 -0.8687499999999999 -0.816875l-0.140625 -0.06875a0.944375 0.944375 0 0 1 -0.546875 -0.6956249999999999 6.2856250000000005 6.2856250000000005 0 0 1 0 -2.15c0.051875000000000004 -0.3025 0.24375000000000002 -0.5293749999999999 0.470625 -0.656875l0.07625 -0.03875c0.43124999999999997 -0.194375 0.78375 -0.49375 1.01 -0.885625 0.225625 -0.39125 0.30874999999999997 -0.845625 0.26187499999999997 -1.31625a0.944375 0.944375 0 0 1 0.3275 -0.8206249999999999 6.24375 6.24375 0 0 1 1.86375 -1.078125 0.944375 0.944375 0 0 1 0.875 0.12687500000000002c0.384375 0.27625 0.8200000000000001 0.43187499999999995 1.2725 0.43187499999999995s0.8875 -0.155625 1.271875 -0.43187499999999995Zm0.598125 1.1056249999999999c-0.54125 0.35624999999999996 -1.179375 0.57625 -1.87 0.57625s-1.3287499999999999 -0.220625 -1.87 -0.57625A4.99375 4.99375 0 0 0 4.4174999999999995 3.5625c0.0375 0.6456249999999999 -0.090625 1.308125 -0.435625 1.90625 -0.345625 0.5974999999999999 -0.8550000000000001 1.039375 -1.433125 1.33a5.04875 5.04875 0 0 0 0 1.40125c0.578125 0.290625 1.0875 0.7324999999999999 1.433125 1.3312499999999998 0.34500000000000003 0.5968749999999999 0.473125 1.2593750000000001 0.435625 1.905a4.99375 4.99375 0 0 0 1.2125 0.701875c0.54125 -0.35624999999999996 1.179375 -0.57625 1.87 -0.57625s1.3287499999999999 0.220625 1.87 0.57625a4.995625 4.995625 0 0 0 1.2125 -0.70125c-0.0375 -0.64625 0.090625 -1.3087499999999999 0.435625 -1.90625 0.34500000000000003 -0.598125 0.8550000000000001 -1.04 1.433125 -1.3312499999999998a5.041250000000001 5.041250000000001 0 0 0 0 -1.4000000000000001c-0.578125 -0.29125 -1.0875 -0.733125 -1.433125 -1.3312499999999998 -0.34500000000000003 -0.5974999999999999 -0.473125 -1.26 -0.435625 -1.90625a4.99375 4.99375 0 0 0 -1.2125 -0.70125ZM7.5 5a2.5 2.5 0 1 1 0 5 2.5 2.5 0 0 1 0 -5Zm0 1.25a1.25 1.25 0 1 0 0 2.5 1.25 1.25 0 0 0 0 -2.5Z"
			stroke-width="1"></path>
	</g>
</svg>