<svg xmlns="http://www.w3.org/2000/svg" viewBox="-0.5 -0.5 16 16" id="User-4-Line--Streamline-Mingcute.svg" height="16"
	width="16">
	<desc>User 4 Line Streamline Icon: https://streamlinehq.com</desc>
	<g fill="none" fill-rule="evenodd">
		<path
			d="M15 0v15H0V0h15ZM7.87125 14.536249999999999l-0.0075 0.00125 -0.044375 0.021875000000000002 -0.0125 0.0025 -0.00875 -0.0025 -0.044375 -0.0225c-0.00625 -0.001875 -0.011875 0 -0.015 0.00375l-0.0025 0.00625 -0.010625 0.2675 0.003125 0.0125 0.00625 0.008125 0.065 0.04625 0.009375 0.0025 0.0075 -0.0025 0.065 -0.04625 0.0075 -0.01 0.0025 -0.010625 -0.010625 -0.266875c-0.00125 -0.00625 -0.005625 -0.010625 -0.01 -0.01125Zm0.165 -0.07062500000000001 -0.00875 0.00125 -0.11499999999999999 0.058124999999999996 -0.00625 0.00625 -0.001875 0.006874999999999999 0.01125 0.26875 0.003125 0.0075 0.005 0.005 0.12562500000000001 0.057499999999999996c0.0075 0.0025 0.014374999999999999 0 0.018125000000000002 -0.005l0.0025 -0.00875 -0.02125 -0.38375c-0.001875 -0.0075 -0.00625 -0.0125 -0.0125 -0.013749999999999998Zm-0.44687499999999997 0.00125a0.014374999999999999 0.014374999999999999 0 0 0 -0.016875 0.00375l-0.00375 0.00875 -0.02125 0.38375c0 0.0075 0.004375 0.0125 0.010625 0.015l0.009375 -0.00125 0.12562500000000001 -0.058124999999999996 0.00625 -0.005 0.001875 -0.006874999999999999 0.01125 -0.26875 -0.001875 -0.0075 -0.00625 -0.00625 -0.11499999999999999 -0.057499999999999996Z"
			stroke-width="1"></path>
		<path fill="#000000"
			d="M7.5 1.25c3.451875 0 6.25 2.798125 6.25 6.25a6.224375 6.224375 0 0 1 -1.41125 3.95625l0.0125 0.013749999999999998 -0.0825 0.07A6.23625 6.23625 0 0 1 7.5 13.75c-1.84375 0 -3.5 -0.798125 -4.64375 -2.066875l-0.125 -0.14375000000000002 -0.0825 -0.06875 0.0125 -0.015A6.22375 6.22375 0 0 1 1.25 7.5C1.25 4.048125000000001 4.048125000000001 1.25 7.5 1.25Zm0 9.375c-1.1625 0 -2.213125 0.37 -2.995625 0.8787499999999999A4.978125 4.978125 0 0 0 7.5 12.5a4.978125 4.978125 0 0 0 2.995625 -0.9962500000000001A5.560625 5.560625 0 0 0 7.5 10.625Zm0 -8.125a5 5 0 0 0 -3.91125 8.115C4.601875000000001 9.888125 5.984375 9.375 7.5 9.375s2.898125 0.5131249999999999 3.91125 1.24A5 5 0 0 0 7.5 2.5Zm0 1.25a2.5 2.5 0 1 1 0 5 2.5 2.5 0 0 1 0 -5Zm0 1.25a1.25 1.25 0 1 0 0 2.5 1.25 1.25 0 0 0 0 -2.5Z"
			stroke-width="1"></path>
	</g>
</svg>