<svg xmlns="http://www.w3.org/2000/svg" fill="none" viewBox="-0.5 -0.5 16 16" id="Verified-Check--Streamline-Solar.svg" height="16" width="16">
    <desc>Verified Check Streamline Icon: https://streamlinehq.com</desc>
    <g id="Bold Duotone/Money/Verified Check">
        <path id="Vector" fill="#CC00CC" d="M5.7303749999999996 1.03225C5.5514375000000005 1.18475 5.4619375 1.261 5.3663125 1.3250625C5.14725 1.4719375000000001 4.9011875 1.5738750000000001 4.642375 1.6249375C4.5295000000000005 1.64725 4.4123125000000005 1.6565625000000002 4.177875 1.6753125C3.5888750000000003 1.7223125000000001 3.2943125 1.7458125 3.048625 1.8325625C2.4803125 2.0333125 2.0333125 2.4803125 1.8325625 3.048625C1.7458125 3.2943125 1.7223125000000001 3.5888125 1.6753125 4.177875C1.6565625000000002 4.4123125000000005 1.64725 4.5295000000000005 1.6249375 4.642375C1.5738750000000001 4.9011875 1.4719375000000001 5.14725 1.3250625 5.3663125C1.261 5.4619375 1.18475 5.5514375000000005 1.0321875 5.7304375C0.6489375 6.1801875 0.4573125 6.404999999999999 0.34493749999999995 6.640125C0.085 7.183937500000001 0.085 7.816062499999999 0.34493749999999995 8.359875C0.4573125 8.595 0.6489375 8.819812500000001 1.0321875 9.269562500000001C1.1846875 9.4485625 1.261 9.538062499999999 1.3250625 9.633625C1.4719375000000001 9.85275 1.5738750000000001 10.098812500000001 1.6249375 10.357624999999999C1.64725 10.470500000000001 1.6565625000000002 10.58775 1.6753125 10.822125C1.7223125000000001 11.4111875 1.7458125 11.7056875 1.8325625 11.951374999999999C2.0333125 12.5196875 2.4803125 12.9666875 3.048625 13.167437500000002C3.2943125 13.2541875 3.5888125 13.277687499999999 4.1778125 13.324750000000002C4.41225 13.343375 4.5295000000000005 13.352812499999999 4.642375 13.375062499999999C4.9011875 13.4261875 5.14725 13.528125 5.366375 13.674937499999999C5.4619375 13.738999999999999 5.5514375000000005 13.815249999999999 5.7304375 13.9678125C6.1801875 14.351062500000001 6.404999999999999 14.5426875 6.640125 14.6550625C7.183937500000001 14.915000000000001 7.816062499999999 14.915000000000001 8.359875 14.6550625C8.595 14.5426875 8.819875 14.351062500000001 9.269625 13.9678125C9.4485625 13.815249999999999 9.538062499999999 13.738999999999999 9.633625 13.674937499999999C9.85275 13.528125 10.098812500000001 13.4261875 10.357624999999999 13.375062499999999C10.470500000000001 13.352812499999999 10.58775 13.343375 10.822125 13.324750000000002C11.4110625 13.277687499999999 11.7056875 13.2541875 11.951374999999999 13.167437500000002C12.5196875 12.9666875 12.966750000000001 12.5196875 13.167437500000002 11.951374999999999C13.2541875 11.7056875 13.277687499999999 11.4111875 13.324750000000002 10.8221875C13.343375 10.5878125 13.352812499999999 10.470500000000001 13.375062499999999 10.357624999999999C13.4261875 10.098812500000001 13.528125 9.85275 13.674937499999999 9.633625C13.738999999999999 9.538062499999999 13.815249999999999 9.4485625 13.9678125 9.269562500000001C14.351062500000001 8.819875 14.5426875 8.595 14.6550625 8.359875C14.915000000000001 7.816062499999999 14.915000000000001 7.183937500000001 14.6550625 6.640125C14.5426875 6.404999999999999 14.351125 6.1801875 13.9678125 5.7304375C13.815249999999999 5.5514375000000005 13.738999999999999 5.4619375 13.674937499999999 5.3663125C13.528125 5.14725 13.4261875 4.9011875 13.375062499999999 4.642375C13.352812499999999 4.5295000000000005 13.343375 4.4123125000000005 13.324750000000002 4.177875C13.277687499999999 3.5888750000000003 13.2541875 3.2943125 13.167437500000002 3.048625C12.9666875 2.4803125 12.5196875 2.0333125 11.951374999999999 1.8325625C11.7056875 1.7458125 11.4111875 1.7223125000000001 10.822125 1.6753125C10.58775 1.6565625000000002 10.470500000000001 1.64725 10.357624999999999 1.6249375C10.098812500000001 1.5738750000000001 9.85275 1.4719375000000001 9.633625 1.3250625C9.538062499999999 1.261 9.4485625 1.18475 9.269625 1.0321875C8.819875 0.6489375 8.595 0.4573125 8.359875 0.34493749999999995C7.816062499999999 0.085 7.183937500000001 0.085 6.640125 0.34493749999999995C6.404999999999999 0.4573125 6.1801875 0.649 5.7303749999999996 1.03225Z" stroke-width="1"></path>
        <path id="Vector_2" fill="#FFFFFF" d="M10.714625 5.9293125C10.9481875 5.6956875 10.9481875 5.3169375 10.714625 5.0833125C10.4809375 4.8496875 10.1021875 4.8496875 9.868625 5.0833125L6.303625 8.648312500000001L5.1315 7.4760625C4.897875 7.242437499999999 4.519125 7.242437499999999 4.2855 7.4760625C4.0519375 7.709687499999999 4.0519375 8.0884375 4.2855 8.322000000000001L5.8806875000000005 9.9171875C6.1143125 10.150749999999999 6.4930625 10.150749999999999 6.726625 9.9171875L10.714625 5.9293125Z" stroke-width="1"></path>
    </g>
</svg>