<svg xmlns="http://www.w3.org/2000/svg" xmlns:xlink="http://www.w3.org/1999/xlink" width="1920" height="1080" viewBox="0 0 1920 1080">
  <defs>
    <filter id="Better_Twitch_Predictions" x="222" y="172" width="843" height="103" filterUnits="userSpaceOnUse">
      <feOffset dx="10" dy="10" input="SourceAlpha"/>
      <feGaussianBlur stdDeviation="3" result="blur"/>
      <feFlood flood-opacity="0.729"/>
      <feComposite operator="in" in2="blur"/>
      <feComposite in="SourceGraphic"/>
    </filter>
    <clipPath id="clip-path">
      <rect id="Rectangle_12" data-name="Rectangle 12" width="60" height="49" rx="20" transform="translate(1079.674 17.964)" fill="#fff"/>
    </clipPath>
    <clipPath id="clip-path-2">
      <rect id="Rectangle_17" data-name="Rectangle 17" width="88" height="88" transform="translate(21 18)" fill="#fff" stroke="#707070" stroke-width="1"/>
    </clipPath>
    <clipPath id="clip-path-3">
      <rect id="Rectangle_16" data-name="Rectangle 16" width="88" height="88"/>
    </clipPath>
    <filter id="DX" x="59.275" y="6.45" width="55" height="53" filterUnits="userSpaceOnUse">
      <feOffset dx="1.4" dy="4.2" input="SourceAlpha"/>
      <feGaussianBlur stdDeviation="4.2" result="blur-2"/>
      <feFlood/>
      <feComposite operator="in" in2="blur-2"/>
      <feComposite in="SourceGraphic"/>
    </filter>
    <clipPath id="clip-Web_1920_1">
      <rect width="1920" height="1080"/>
    </clipPath>
  </defs>
  <g id="Web_1920_1" data-name="Web 1920 – 1" clip-path="url(#clip-Web_1920_1)">
    <rect width="1920" height="1080" fill="#fff"/>
    <g id="Rectangle_9" data-name="Rectangle 9" fill="#7280ff" stroke="#707070" stroke-width="1">
      <rect width="1921" height="122" stroke="none"/>
      <rect x="0.5" y="0.5" width="1920" height="121" fill="none"/>
    </g>
    <text id="Profil" transform="translate(1084 75)" fill="#fff" font-size="40" font-family="SegoeUI, Segoe UI"><tspan x="0" y="0">Profil</tspan></text>
    <text id="Déconnexion" transform="translate(1648 75)" fill="#fff" font-size="40" font-family="SegoeUI, Segoe UI"><tspan x="0" y="0">Déconnexion</tspan></text>
    <line id="Line_1" data-name="Line 1" x2="92" transform="translate(1084.5 90.5)" fill="none" stroke="#fff" stroke-width="2"/>
    <g id="bg" transform="translate(0 122)" fill="#361e49" stroke="#707070" stroke-width="1">
      <rect width="1921" height="958" stroke="none"/>
      <rect x="0.5" y="0.5" width="1920" height="957" fill="none"/>
    </g>
    <rect id="Rectangle_3" data-name="Rectangle 3" width="674" height="958" transform="translate(1246 122)"/>
    <text id="Profil-2" data-name="Profil" transform="translate(1497 223)" fill="#fff" font-size="70" font-family="RoobertTWHINT-SemiBold, Roobert TWHINT" font-weight="600"><tspan x="0" y="0">Profil</tspan></text>
    <text id="Changer_de_pseudo" data-name="Changer de pseudo" transform="translate(1396 385)" fill="#fff" font-size="40" font-family="RoobertTWHINT-SemiBold, Roobert TWHINT" font-weight="600"><tspan x="0" y="0">Changer de pseudo</tspan></text>
    <g id="Rectangle_4" data-name="Rectangle 4" transform="translate(1336 413)" fill="#fff" stroke="#707070" stroke-width="3">
      <rect width="505" height="56" rx="7" stroke="none"/>
      <rect x="1.5" y="1.5" width="502" height="53" rx="5.5" fill="none"/>
    </g>
    <g id="Rectangle_7" data-name="Rectangle 7" transform="translate(1430 957)" fill="#3645ff" stroke="#707070" stroke-width="1">
      <rect width="321" height="69" rx="7" stroke="none"/>
      <rect x="0.5" y="0.5" width="320" height="68" rx="6.5" fill="none"/>
    </g>
    <text id="Sauvegarder" transform="translate(1470 1006)" fill="#fff" font-size="40" font-family="RoobertTWHINT-SemiBold, Roobert TWHINT" font-weight="600"><tspan x="0" y="0">Sauvegarder</tspan></text>
    <text id="Statistiques" transform="translate(467 354)" fill="#fff" font-size="60" font-family="SegoeUI, Segoe UI"><tspan x="0" y="0">Statistiques</tspan></text>
    <text id="Nombre_de_mises_:_0_" data-name="Nombre de mises : 0 " transform="translate(48 445)" fill="#fff" font-size="40" font-family="SegoeUI, Segoe UI"><tspan x="0" y="0">Nombre de mises : 0 </tspan></text>
    <text id="Pourcentage_de_bonnes_réponses_100_" data-name="Pourcentage de bonnes réponses 100%" transform="translate(48 691)" fill="#fff" font-size="40" font-family="SegoeUI, Segoe UI"><tspan x="0" y="0">Pourcentage de bonnes réponses 100%</tspan></text>
    <text id="Nombre_de_Prédictions_Créées_:_0" data-name="Nombre de Prédictions Créées : 0" transform="translate(634 445)" fill="#fff" font-size="40" font-family="SegoeUI, Segoe UI"><tspan x="0" y="0">Nombre de Prédictions Créées : 0</tspan></text>
    <text id="Couleur_préférée_:_Vert" data-name="Couleur préférée : Vert" transform="translate(634 531)" fill="#fff" font-size="40" font-family="SegoeUI, Segoe UI"><tspan x="0" y="0">Couleur préférée : Vert</tspan></text>
    <text id="A_participé_aux_Prédictions_:" data-name="A participé aux Prédictions :" transform="translate(52 983)" fill="#fff" font-size="40" font-family="SegoeUI, Segoe UI"><tspan x="0" y="0">A participé aux Prédictions :</tspan></text>
    <text id="Accueil" transform="translate(170 73)" fill="#fff" font-size="40" font-family="SegoeUI, Segoe UI"><tspan x="0" y="0">Accueil</tspan></text>
    <text id="Rechercher" transform="translate(749 61)" fill="#fff" font-size="40" font-family="SegoeUI, Segoe UI"><tspan x="0" y="0">Rechercher</tspan></text>
    <g transform="matrix(1, 0, 0, 1, 0, 0)" filter="url(#Better_Twitch_Predictions)">
      <text id="Better_Twitch_Predictions-2" data-name="Better Twitch Predictions" transform="translate(222 241)" fill="#81fbff" font-size="70" font-family="RoobertTWHINT-SemiBold, Roobert TWHINT" font-weight="600"><tspan x="0" y="0">Better Twitch Predictions</tspan></text>
    </g>
    <rect id="Rectangle_10" data-name="Rectangle 10" width="587" height="77" rx="38.5" transform="translate(361 23)" fill="#e9e9e9"/>
    <rect id="Rectangle_11" data-name="Rectangle 11" width="139" height="77" rx="35" transform="translate(873 23)" fill="#f2f2f2"/>
    <g id="Mask_Group_1" data-name="Mask Group 1" transform="translate(-153.674 19.036)" clip-path="url(#clip-path)">
      <g id="f" transform="translate(1084.771 17.803)">
        <path id="Path_1" data-name="Path 1" d="M44.814,49.337A21.979,21.979,0,1,1,49.237,44.9l9.7,9.722-4.423,4.437-9.7-9.722Zm2.527-17.581A15.64,15.64,0,1,1,31.7,16.077,15.66,15.66,0,0,1,47.341,31.757Z" transform="translate(-9.804 -9.804)" fill-rule="evenodd"/>
      </g>
    </g>
    <rect id="Rectangle_13" data-name="Rectangle 13" width="6" height="77" transform="translate(896 23)" fill="#7280ff"/>
    <rect id="Rectangle_14" data-name="Rectangle 14" width="35" height="77" transform="translate(861 23)" fill="#e9e9e9"/>
    <text id="Rechercher-2" data-name="Rechercher" transform="translate(400 77)" fill="#a9a9a9" font-size="50" font-family="SegoeUI-Semibold, Segoe UI" font-weight="600"><tspan x="0" y="0">Rechercher</tspan></text>
    <g id="Mask_Group_2" data-name="Mask Group 2" clip-path="url(#clip-path-2)" style="mix-blend-mode: darken;isolation: isolate">
      <g id="SPRK_default_preset_name_custom_1" data-name="SPRK_default_preset_name_custom – 1" transform="translate(21 18)" clip-path="url(#clip-path-3)">
        <rect id="Rectangle_15" data-name="Rectangle 15" width="88" height="88" fill="#fff"/>
        <g id="e" transform="translate(8.25 -1.375)">
          <path id="Path_1-2" data-name="Path 1" d="M24.75,11,11,24.75v49.5H27.5V88L41.25,74.25h11L77,49.5V11Z" transform="translate(-11 -4.125)" fill="#6441a5"/>
          <path id="Path_2" data-name="Path 2" d="M52.25,52.829l11-10.421V13.75h-44V52.829h11V63.25l11-10.421Z" transform="translate(-5.5)" fill="#fff"/>
          <g id="Group_1" data-name="Group 1" transform="translate(30.169 24.25)">
            <path id="Path_3" data-name="Path 3" d="M27.5,19.25H33v16.5H27.5Zm19.25,0v16.5h-5.5V19.25Z" transform="translate(-27.5 -19.25)" fill="#6441a5"/>
          </g>
          <rect id="Rectangle_1" data-name="Rectangle 1" width="33" height="22" transform="translate(39.875 2.75)" fill="none"/>
          <g transform="matrix(1, 0, 0, 1, -29.25, -16.63)" filter="url(#DX)">
            <text id="DX-2" data-name="DX" transform="translate(71.88 37.25)" fill="none" stroke="#915af7" stroke-width="1.4" font-size="21" font-family="RoobertTWHINT-SemiBold, Roobert TWHINT" font-weight="600"><tspan x="0" y="0">DX</tspan></text>
          </g>
        </g>
        <rect id="Rectangle_2" data-name="Rectangle 2" width="15.125" height="11" transform="translate(22 40.563)" fill="#5085ff"/>
        <path id="Path_4" data-name="Path 4" d="M22,40.96a15.172,15.172,0,0,1,3.625-3.5,6.905,6.905,0,0,1,4.625-1.265c1.617.077,3.963,1.306,6.31,4.768,7.278,10.737,14.128,0,14.128,0a11.452,11.452,0,0,1,6.694-4.444c1.895-.362,4.865-.3,7.444,4.444" transform="translate(0.575)" fill="none" stroke="#5085ff" stroke-width="1.375"/>
        <path id="Polygon_1" data-name="Polygon 1" d="M10.45,0,20.9,11H0Z" transform="translate(44 41.016) rotate(90)" fill="#5085ff"/>
        <path id="Path_5" data-name="Path 5" d="M22.026,40.367s7.528-8.756,14.229-.573S43.2,51.333,43.2,51.333" transform="translate(0.06 0.206)" fill="#5085ff"/>
        <path id="Path_6" data-name="Path 6" d="M39.222,43.186" fill="none" stroke="#707070" stroke-width="1.375"/>
        <path id="Path_8" data-name="Path 8" d="M40.728,45.408c8.346,3.191,13.54-6.783,13.54-6.783l4.555-1.884,4.152,2.417L43.3,51.1Z" fill="#5085ff" stroke="#5085ff" stroke-width="1.375"/>
        <path id="Path_9" data-name="Path 9" d="M44,51.466H54.957L66,41.25v-.619l-2.663-2.2Z" fill="#5085ff"/>
        <circle id="Ellipse_1" data-name="Ellipse 1" cx="1.375" cy="1.375" r="1.375" transform="translate(26.125 38.5)" fill="#3674ff"/>
        <circle id="Ellipse_2" data-name="Ellipse 2" cx="1.375" cy="1.375" r="1.375" transform="translate(28.875 45.375)" fill="#3674ff"/>
        <circle id="Ellipse_3" data-name="Ellipse 3" cx="1.375" cy="1.375" r="1.375" transform="translate(33 41.25)" fill="#3674ff"/>
        <circle id="Ellipse_4" data-name="Ellipse 4" cx="1.375" cy="1.375" r="1.375" transform="translate(35.75 49.5)" fill="#3674ff"/>
        <circle id="Ellipse_5" data-name="Ellipse 5" cx="1.375" cy="1.375" r="1.375" transform="translate(38.5 45.375)" fill="#3674ff"/>
        <circle id="Ellipse_6" data-name="Ellipse 6" cx="1.375" cy="1.375" r="1.375" transform="translate(44 46.75)" fill="#3674ff"/>
        <circle id="Ellipse_7" data-name="Ellipse 7" cx="1.375" cy="1.375" r="1.375" transform="translate(49.5 44)" fill="#3674ff"/>
        <circle id="Ellipse_8" data-name="Ellipse 8" cx="1.375" cy="1.375" r="1.375" transform="translate(53.625 46.75)" fill="#3674ff"/>
        <circle id="Ellipse_9" data-name="Ellipse 9" cx="1.375" cy="1.375" r="1.375" transform="translate(53.625 41.25)" fill="#3674ff"/>
        <circle id="Ellipse_10" data-name="Ellipse 10" cx="1.375" cy="1.375" r="1.375" transform="translate(57.75 42.625)" fill="#3674ff"/>
        <circle id="Ellipse_11" data-name="Ellipse 11" cx="1.375" cy="1.375" r="1.375" transform="translate(59.125 38.5)" fill="#3674ff"/>
      </g>
    </g>
    <text id="Créer_une_prédiction" data-name="Créer une prédiction" transform="translate(1231 75)" fill="#fff" font-size="40" font-family="SegoeUI, Segoe UI"><tspan x="0" y="0">Créer une prédiction</tspan></text>
    <text id="Points_misés_:_0" data-name="Points misés : 0" transform="translate(48 525)" fill="#fff" font-size="40" font-family="SegoeUI, Segoe UI"><tspan x="0" y="0">Points misés : 0</tspan></text>
    <text id="Points_actuels_:_100" data-name="Points actuels : 100" transform="translate(48 605)" fill="#fff" font-size="40" font-family="SegoeUI, Segoe UI"><tspan x="0" y="0">Points actuels : 100</tspan></text>
    <text id="Prédictions" transform="translate(467 824)" fill="#fff" font-size="60" font-family="SegoeUI, Segoe UI"><tspan x="0" y="0">Prédictions</tspan></text>
    <text id="Prédictions_créées_:" data-name="Prédictions créées :" transform="translate(52 890)" fill="#fff" font-size="40" font-family="SegoeUI, Segoe UI"><tspan x="0" y="0">Prédictions créées :</tspan></text>
    <text id="Changer_de_pseudo-2" data-name="Changer de pseudo" transform="translate(1396 385)" fill="#fff" font-size="40" font-family="RoobertTWHINT-SemiBold, Roobert TWHINT" font-weight="600"><tspan x="0" y="0">Changer de pseudo</tspan></text>
    <g id="Rectangle_18" data-name="Rectangle 18" transform="translate(1341 606)" fill="#fff" stroke="#707070" stroke-width="3">
      <rect width="505" height="306" rx="7" stroke="none"/>
      <rect x="1.5" y="1.5" width="502" height="303" rx="5.5" fill="none"/>
    </g>
    <text id="Biographie_5000_caractères_max_" data-name="Biographie (5000 caractères max)" transform="translate(1354 578)" fill="#fff" font-size="40" font-family="RoobertTWHINT-SemiBold, Roobert TWHINT" font-weight="600"><tspan x="0" y="0">Biographie </tspan><tspan y="0" font-size="25">(5000 caractères max)</tspan></text>
    <line id="Line_2" data-name="Line 2" x2="1147" transform="translate(48.5 735.5)" fill="none" stroke="#fff" stroke-width="3"/>
  </g>
</svg>
