<svg xmlns="http://www.w3.org/2000/svg" viewBox="0 0 16 16" width="100" height="100">
  <defs>
    <linearGradient id="backgroundGradient" x1="0%" y1="0%" x2="100%" y2="100%">
      <stop offset="0%" style="stop-color:#f0f0f0;stop-opacity:1" />
      <stop offset="100%" style="stop-color:#a5a5a5;stop-opacity:1" />
    </linearGradient>
  </defs>
  <rect width="16" height="16" rx="4" fill="url(#backgroundGradient)" />
  <g id="blank-calendar--blank-calendar-date-day-month-empty" fill="#0000" transform="translate(3, 3) scale(0.7)">
    <path id="Vector" stroke="#000" stroke-linecap="round" stroke-linejoin="round" d="M1.5 2c-0.26522 0 -0.51957 0.10536 -0.707107 0.29289C0.605357 2.48043 0.5 2.73478 0.5 3v9.5c0 0.2652 0.105357 0.5196 0.292893 0.7071 0.187537 0.1875 0.441887 0.2929 0.707107 0.2929h11c0.2652 0 0.5196 -0.1054 0.7071 -0.2929s0.2929 -0.4419 0.2929 -0.7071V3c0 -0.26522 -0.1054 -0.51957 -0.2929 -0.70711C13.0196 2.10536 12.7652 2 12.5 2h-2" stroke-width="1"></path>
    <path id="Vector_2" stroke="#000" stroke-linecap="round" stroke-linejoin="round" d="M0.5 5.5h13" stroke-width="1"></path>
    <path id="Vector_3" stroke="#000" stroke-linecap="round" stroke-linejoin="round" d="M3.5 0.5v3" stroke-width="1"></path>
    <path id="Vector_4" stroke="#000" stroke-linecap="round" stroke-linejoin="round" d="M10.5 0.5v3" stroke-width="1"></path>
    <path id="Vector_5" stroke="#000" stroke-linecap="round" stroke-linejoin="round" d="M3.5 2h5" stroke-width="1"></path>
  </g>
</svg>
